<?xml version="1.0" encoding="UTF-8" standalone="no"?>
<!DOCTYPE svg PUBLIC "-//W3C//DTD SVG 1.1//EN" "http://www.w3.org/Graphics/SVG/1.1/DTD/svg11.dtd">
<svg xmlns="http://www.w3.org/2000/svg" version="1.1" viewBox="0.00 0.00 1052.00 1053.00">
<path fill="#f5e200" d="
  M 514.30 0.00
  L 535.81 0.00
  C 644.31 2.17 746.66 36.54 834.49 99.28
  C 934.31 170.59 1007.93 278.73 1037.60 397.93
  Q 1042.87 419.11 1047.58 447.98
  Q 1047.60 448.05 1047.80 450.02
  C 1048.29 454.82 1049.39 458.14 1049.74 464.44
  Q 1050.24 473.15 1051.76 481.75
  C 1052.87 487.99 1048.44 494.41 1044.65 498.88
  Q 1044.33 499.25 1043.84 499.26
  C 1039.73 499.34 1035.89 501.04 1032.18 501.20
  Q 1018.67 501.80 1005.16 502.14
  C 997.49 502.34 988.14 503.60 979.56 503.59
  C 968.92 503.58 962.51 495.97 962.16 485.75
  Q 962.00 480.85 961.10 476.03
  C 960.31 471.77 960.54 467.02 959.77 463.74
  Q 958.08 456.50 957.68 451.51
  C 957.34 447.12 955.85 443.20 955.44 438.85
  Q 955.40 438.37 955.05 438.04
  Q 954.45 437.46 954.50 436.25
  C 954.66 432.67 952.75 428.03 952.17 425.59
  C 914.64 267.78 794.85 145.75 638.61 103.80
  Q 630.25 101.56 619.15 99.26
  C 594.39 94.13 577.43 91.85 551.31 90.15
  Q 531.33 88.86 493.88 90.36
  C 493.25 90.39 492.90 90.72 492.17 90.76
  Q 472.70 91.93 453.46 95.25
  C 269.77 126.93 127.25 268.59 95.07 451.96
  Q 92.25 468.01 90.97 484.24
  C 89.79 499.12 82.94 504.34 68.47 503.40
  Q 47.14 502.01 25.74 501.51
  Q 19.93 501.37 12.35 499.69
  C -2.79 496.32 1.77 475.01 3.08 464.06
  Q 13.70 375.10 52.18 296.43
  C 118.46 160.92 240.13 59.61 384.25 19.27
  Q 446.84 1.76 514.30 0.00
  Z"
/>
<path fill="#f4313f" d="
  M 545.54 142.83
  C 548.55 142.97 551.42 145.29 548.07 148.08
  Q 536.16 158.03 524.71 167.57
  A 1.90 1.90 0.0 0 1 522.40 167.66
  Q 509.15 158.18 497.67 148.83
  Q 496.02 147.48 495.23 146.39
  A 0.80 0.80 0.0 0 1 495.27 145.39
  Q 496.89 143.54 498.49 143.41
  Q 519.76 141.61 545.54 142.83
  Z"
/>
<path fill="#f4313f" d="
  M 555.30 328.72
  C 549.59 325.37 544.85 319.82 542.76 313.48
  Q 541.50 309.66 541.49 301.38
  C 541.47 271.96 542.43 242.56 542.28 213.15
  C 542.21 200.38 544.80 193.86 554.36 186.23
  C 566.06 176.88 578.15 167.79 589.54 158.09
  C 601.61 147.81 614.48 151.72 628.99 155.77
  C 715.94 180.01 793.37 233.90 844.50 307.27
  C 849.16 313.96 848.90 321.18 847.71 330.01
  Q 843.86 358.75 841.01 374.50
  Q 838.36 389.17 824.34 395.13
  Q 787.72 410.72 750.97 426.03
  C 735.30 432.56 729.87 430.05 715.68 421.88
  Q 622.88 368.46 555.30 328.72
  Z"
/>
<path fill="#f4313f" d="
  M 298.11 428.24
  C 274.93 419.34 251.62 410.43 228.69 400.93
  C 219.58 397.16 213.66 392.00 210.64 382.89
  Q 210.05 381.13 207.85 368.44
  Q 205.51 354.92 203.34 341.38
  C 201.27 328.44 199.72 320.93 206.45 311.21
  C 260.26 233.51 341.77 176.33 433.49 154.20
  C 445.04 151.41 452.33 155.60 462.14 163.07
  Q 477.69 174.91 493.07 186.93
  C 503.53 195.09 505.47 202.38 506.15 214.81
  C 506.82 227.24 506.34 246.73 506.95 262.93
  Q 507.71 282.84 507.84 302.76
  C 507.95 318.78 500.05 324.92 486.39 333.20
  Q 412.78 377.78 338.87 421.86
  C 321.56 432.18 316.33 435.24 298.11 428.24
  Z"
/>
<path fill="#f4313f" d="
  M 404.60 700.13
  Q 396.21 695.58 393.43 686.75
  Q 390.78 678.35 386.08 659.54
  Q 365.22 576.23 344.05 492.99
  C 340.77 480.10 339.20 470.58 347.85 461.06
  Q 350.97 457.62 360.81 451.88
  Q 436.35 407.87 511.92 363.91
  C 522.78 357.60 531.16 358.98 541.81 365.02
  Q 595.26 395.32 648.63 425.73
  C 663.77 434.36 680.07 443.34 695.64 452.46
  C 705.23 458.08 711.07 465.81 710.83 477.19
  Q 710.76 480.51 707.19 495.35
  Q 685.50 585.33 663.88 675.33
  C 660.91 687.70 657.57 697.17 644.76 701.49
  Q 640.10 703.06 628.54 703.11
  C 585.89 703.30 543.14 702.68 500.50 703.42
  Q 473.27 703.90 446.03 703.75
  C 436.19 703.70 423.33 704.88 411.64 703.43
  Q 411.16 703.38 410.79 703.06
  C 409.73 702.14 407.55 702.33 406.13 701.21
  Q 405.13 700.41 404.60 700.13
  Z"
/>
<path fill="#f4313f" d="
  M 866.23 402.70
  Q 864.48 401.69 865.08 399.75
  L 874.83 368.74
  A 1.94 1.83 25.4 0 1 877.68 367.82
  Q 877.94 367.99 878.59 368.60
  Q 879.02 369.01 879.29 369.56
  Q 889.55 390.79 896.14 413.41
  Q 896.74 415.46 896.33 417.22
  A 1.86 1.86 0.0 0 1 893.59 418.42
  L 866.23 402.70
  Z"
/>
<path fill="#f4313f" d="
  M 156.24 423.54
  A 0.52 0.52 0.0 0 1 155.81 422.98
  Q 155.95 421.20 156.51 419.25
  C 160.76 404.51 165.86 387.89 173.12 374.36
  A 2.52 2.51 -40.5 0 1 177.71 374.72
  L 188.20 404.96
  A 0.67 0.67 0.0 0 1 187.94 405.74
  Q 174.47 414.77 160.85 422.91
  Q 159.00 424.01 156.24 423.54
  Z"
/>
<path fill="#f4313f" d="
  M 773.60 782.54
  C 758.54 782.40 741.68 785.50 731.45 770.78
  Q 716.82 749.74 702.19 728.68
  C 696.20 720.07 693.24 714.52 694.67 704.69
  Q 695.61 698.27 697.15 691.98
  Q 722.78 586.94 748.05 481.81
  Q 751.72 466.52 764.99 460.84
  Q 798.44 446.50 831.99 432.48
  C 847.83 425.86 854.67 431.02 869.62 440.00
  Q 881.78 447.31 893.87 454.74
  C 903.59 460.72 909.37 465.30 911.27 475.99
  Q 912.76 484.40 913.68 495.26
  C 922.29 596.38 891.59 697.12 825.54 774.26
  Q 818.85 782.07 807.68 782.85
  C 796.21 783.64 782.73 782.62 773.60 782.54
  Z"
/>
<path fill="#f4313f" d="
  M 280.91 785.65
  Q 266.58 785.90 252.25 786.55
  C 240.34 787.10 234.23 780.40 226.34 770.78
  C 166.21 697.50 135.05 604.99 140.16 510.13
  Q 140.79 498.52 141.26 492.86
  C 142.25 480.94 143.33 469.59 153.93 462.93
  Q 174.24 450.18 194.69 437.66
  C 206.68 430.32 212.83 432.48 224.92 437.38
  Q 258.22 450.88 291.38 464.69
  C 302.00 469.11 304.13 476.57 306.72 486.76
  Q 333.66 592.47 360.60 698.18
  C 363.39 709.13 365.07 715.90 358.35 725.84
  Q 342.74 748.91 327.11 771.96
  C 322.84 778.25 318.15 783.13 311.25 784.56
  C 301.91 786.52 288.20 785.53 280.91 785.65
  Z"
/>
<path fill="#0b5eb4" d="
  M 157.05 762.69
  C 227.00 872.75 342.95 945.52 472.56 961.50
  C 482.71 962.75 494.94 961.22 500.33 971.21
  Q 501.72 973.78 501.79 978.04
  C 502.07 994.46 500.62 1008.07 499.71 1027.21
  C 499.18 1038.39 499.71 1045.53 490.43 1050.48
  C 484.96 1053.39 473.09 1051.53 467.02 1050.70
  C 455.22 1049.08 443.49 1047.59 431.78 1045.41
  Q 298.16 1020.55 193.75 935.74
  Q 143.77 895.14 103.86 842.04
  Q 103.79 841.94 102.18 839.48
  C 101.35 838.22 100.23 837.25 99.40 836.09
  Q 85.44 816.43 74.98 799.02
  C 33.71 730.30 8.77 653.93 1.56 574.18
  Q 1.03 568.31 2.12 564.91
  C 5.36 554.82 13.21 554.06 23.43 553.59
  C 38.30 552.91 53.11 551.80 67.99 551.32
  C 72.91 551.15 76.66 550.20 81.32 552.48
  Q 89.61 556.53 90.49 566.27
  Q 100.10 673.11 157.05 762.69
  Z"
/>
<path fill="#f4313f" d="
  M 566.94 1051.80
  C 559.63 1050.79 554.20 1045.30 553.37 1037.89
  C 552.42 1029.24 552.22 1020.44 551.84 1011.75
  Q 551.16 996.24 550.15 980.76
  C 549.47 970.32 556.23 964.62 565.77 963.27
  C 572.86 962.27 580.85 961.65 587.07 960.75
  C 776.98 933.38 927.00 788.28 958.52 598.01
  Q 960.16 588.05 962.12 570.29
  C 963.66 556.24 968.44 550.90 982.87 551.49
  Q 1008.74 552.54 1034.56 554.18
  C 1045.17 554.85 1052.20 561.41 1051.21 572.50
  C 1028.70 825.79 829.58 1026.70 576.58 1051.33
  Q 568.95 1052.08 566.94 1051.80
  Z"
/>
<path fill="#f4313f" d="
  M 363.06 880.69
  C 353.58 875.62 351.70 865.97 348.56 854.77
  Q 343.77 837.68 341.82 826.68
  Q 340.37 818.49 345.41 810.39
  Q 363.14 781.91 380.94 753.49
  C 387.91 742.36 398.44 740.31 410.51 740.28
  Q 435.76 740.21 461.00 740.26
  C 463.08 740.27 465.93 739.77 468.35 739.75
  C 517.46 739.47 559.15 738.13 604.56 739.43
  Q 613.72 739.69 644.15 739.48
  Q 655.32 739.40 659.74 740.88
  C 668.61 743.87 671.86 749.65 677.82 758.83
  Q 693.31 782.64 708.73 806.51
  Q 715.18 816.49 712.81 827.41
  Q 708.90 845.39 704.12 863.17
  C 701.80 871.80 697.07 876.90 688.76 880.74
  Q 644.69 901.11 596.76 909.54
  C 593.72 910.07 590.64 910.20 587.59 911.11
  C 583.03 912.46 577.72 911.71 573.26 912.97
  C 569.47 914.04 565.77 913.39 562.13 913.98
  Q 558.52 914.57 554.84 914.56
  C 550.39 914.55 546.20 915.32 541.50 915.44
  C 524.04 915.89 508.84 915.58 492.92 914.35
  Q 434.19 909.81 379.43 888.17
  Q 370.30 884.57 363.06 880.69
  Z"
/>
<path fill="#f4313f" d="
  M 783.06 814.64
  A 1.95 1.95 0.0 0 1 784.26 817.69
  Q 783.35 818.94 781.94 820.19
  Q 764.85 835.22 746.04 848.06
  Q 744.64 849.02 743.03 849.50
  Q 742.57 849.63 742.17 849.38
  Q 740.33 848.25 740.72 846.49
  Q 743.96 831.84 747.91 815.42
  Q 748.12 814.55 749.02 814.53
  Q 764.38 814.18 780.25 814.37
  Q 781.79 814.39 783.06 814.64
  Z"
/>
<path fill="#f4313f" d="
  M 276.01 823.04
  C 274.20 821.44 272.22 820.60 272.31 817.77
  Q 272.35 816.60 273.51 816.50
  Q 290.15 815.05 306.86 815.65
  Q 307.41 815.67 307.63 816.18
  Q 308.13 817.39 308.57 819.18
  Q 310.05 825.22 315.66 846.62
  C 316.22 848.78 315.99 850.39 313.82 851.17
  A 1.00 0.99 51.7 0 1 312.93 851.06
  Q 293.41 838.43 276.01 823.04
  Z"
/>
</svg>
