<svg width="384" height="479" viewBox="0 0 384 479" fill="none" xmlns="http://www.w3.org/2000/svg">
<path d="M154.903 218.749V136.026C146.695 138.003 138.644 140.659 130.791 143.991C119.649 148.717 109.197 154.671 99.5232 161.785V218.749H154.903Z" fill="#009F4D"/>
<path d="M154.903 439.144V355.805H99.5232V413.385C109.197 420.497 119.649 426.454 130.791 431.179C138.644 434.507 146.695 437.167 154.903 439.144Z" fill="#009F4D"/>
<path d="M216.128 218.802V133.779C207.958 132.459 199.65 131.797 191.241 131.797C182.925 131.797 174.708 132.446 166.626 133.733V218.802H216.128Z" fill="white"/>
<path d="M216.128 441.444V355.805H166.626V441.486C174.708 442.777 182.925 443.426 191.241 443.426C199.65 443.426 207.958 442.759 216.128 441.444Z" fill="white"/>
<path d="M283.294 218.801V162.037C273.545 154.835 262.993 148.81 251.748 144.043C243.99 140.748 236.029 138.112 227.914 136.144V218.801H283.294Z" fill="#E40030"/>
<path d="M283.294 413.18V355.805H227.914V439.074C236.029 437.105 243.99 434.47 251.748 431.179C262.993 426.407 273.545 420.382 283.294 413.18Z" fill="#E40030"/>
<path d="M114.952 70.4343L119.397 44.3886L101.325 26.7806L100.434 25.9154L124.55 22.4415L126.629 22.1458L137.331 1.87601L138.252 0L138.283 0.0595898L147.773 17.6588L149.996 22.1458L176.134 25.9154L160.554 41.1332L157.233 44.3886L161.698 70.4343L160.554 69.8296L138.283 58.1431L138.252 58.1277L137.331 58.6154L114.952 70.4343Z" fill="white"/>
<path d="M87.7686 155.466C82.5048 159.611 77.4682 164.08 72.6789 168.87C57.2559 184.293 45.1479 202.252 36.6904 222.243C27.9393 242.935 23.5031 264.921 23.5031 287.595C23.5031 310.266 27.9393 332.255 36.6904 352.944C45.1479 372.938 57.2559 390.894 72.6789 406.32C77.4682 411.109 82.5048 415.578 87.7686 419.719V448.561C76.3801 441.216 65.7796 432.654 56.0618 422.937C38.4869 405.362 24.6883 384.893 15.0456 362.101C5.06302 338.496 0 313.426 0 287.595C0 261.759 5.06302 236.693 15.0456 213.088C24.6883 190.294 38.4869 169.825 56.0618 152.253C65.7796 142.535 76.3801 133.971 87.7686 126.628V155.466Z" fill="white"/>
<path d="M326.746 152.253C344.321 169.825 358.117 190.294 367.758 213.088C377.745 236.693 382.806 261.759 382.806 287.595C382.806 313.426 377.745 338.496 367.758 362.101C358.117 384.893 344.321 405.362 326.746 422.937C317.03 432.652 306.428 441.216 295.037 448.559V419.719C300.301 415.578 305.337 411.109 310.129 406.32C325.55 390.894 337.658 372.938 346.113 352.944C354.864 332.255 359.305 310.266 359.305 287.595C359.305 264.921 354.864 242.935 346.113 222.243C337.658 202.252 325.55 184.293 310.129 168.87C305.337 164.08 300.301 159.611 295.037 155.466V126.631C306.428 133.971 317.03 142.537 326.746 152.253Z" fill="white"/>
<path d="M208.66 26.7806L226.729 44.3886L222.289 70.4343L244.669 58.6154L245.589 58.1277L245.618 58.1431L267.891 69.8296L269.035 70.4343L264.57 44.3886L267.891 41.1332L283.467 25.9154L257.333 22.1458L255.11 17.6588L245.618 0.0595898L245.589 0L244.669 1.87601L233.966 22.1458L231.883 22.4415L207.768 25.9154L208.66 26.7806Z" fill="white"/>
<path d="M14.5203 116.047L18.961 90.001L0.891657 72.3908L0 71.5278L0.891657 71.3976L24.1189 68.0517L26.1979 67.7582L37.8204 44.0498L37.8513 44.1072L49.5642 67.7582L75.6982 71.5278L60.1229 86.7456L56.8012 90.001L61.2705 116.047L60.1229 115.44L37.8513 103.756L37.8204 103.74L36.9 104.23L14.5203 116.047Z" fill="white"/>
<path d="M309.098 72.3908L327.163 90.001L322.722 116.047L345.102 104.23L346.022 103.74L346.051 103.756L368.325 115.44L369.468 116.047L365.001 90.001L368.325 86.7456L383.905 71.5278L357.766 67.7582L355.548 63.269L346.051 44.105L346.022 44.0498L334.4 67.7582L332.317 68.0517L309.098 71.3976L308.202 71.5278L309.098 72.3908Z" fill="white"/>
<path d="M87.7566 187.356V171.384C85.587 173.33 83.466 175.345 81.3914 177.422C67.1249 191.733 55.924 208.396 48.0977 226.953C39.9956 246.168 35.886 266.577 35.886 287.61C35.886 308.644 39.9956 329.052 48.0977 348.267C55.924 366.824 67.1249 383.49 81.3914 397.8C83.466 399.877 85.587 401.89 87.7566 403.837V387.866C75.3705 375.019 65.5954 360.199 58.6718 343.785C51.17 325.996 47.3672 307.096 47.3672 287.61C47.3672 268.126 51.17 249.227 58.6718 231.438C65.5954 215.022 75.3705 200.201 87.7566 187.356Z" fill="white"/>
<path d="M301.114 177.422C315.381 191.733 326.584 208.396 334.406 226.953C342.51 246.168 346.62 266.577 346.62 287.61C346.62 308.644 342.51 329.052 334.406 348.267C326.584 366.824 315.381 383.49 301.114 397.8C299.13 399.791 297.1 401.72 295.025 403.59V387.577C307.279 374.796 316.963 360.077 323.834 343.785C331.336 325.996 335.141 307.096 335.141 287.61C335.141 268.126 331.336 249.227 323.834 231.438C316.963 215.143 307.279 200.424 295.025 187.645V171.631C297.1 173.502 299.13 175.431 301.114 177.422Z" fill="white"/>
<path d="M99.5233 231.879H133.605V245.83H114.67V259.783H133.605V273.734H114.67V308.415H99.5233V231.879Z" fill="white"/>
<path d="M144.249 231.879H159.395V308.415H144.249V231.879Z" fill="white"/>
<path d="M206.844 259.284C206.844 256.194 206.246 253.702 205.251 251.61C203.456 248.123 201.064 245.83 196.579 245.83C188.607 245.83 184.522 252.707 184.522 270.147C184.522 287.885 188.309 294.462 196.579 294.462C200.565 294.462 202.957 292.767 204.652 290.278C206.345 287.687 206.943 284.398 206.844 280.809H194.189V266.859H222.391V281.11C222.391 296.555 212.525 308.413 196.579 308.413C177.644 308.413 168.975 294.063 168.975 270.147C168.975 247.224 178.143 231.879 196.579 231.879C212.026 231.879 221.495 242.243 222.391 259.284H206.844Z" fill="white"/>
<path d="M256.589 308.415C273.93 308.415 283.198 295.261 283.297 278.419H267.75C267.353 286.292 265.658 294.065 257.785 294.065C250.809 294.065 245.428 287.786 245.428 270.147C245.428 252.508 250.809 246.231 257.785 246.231C263.566 246.231 267.353 249.319 267.75 262.473H283.297C283.496 245.333 274.427 231.879 256.589 231.879C240.445 231.879 229.881 244.338 229.881 270.147C229.881 295.959 240.445 308.415 256.589 308.415Z" fill="white"/>
<path d="M283.291 147.038V119.653C277.665 116.574 271.869 113.771 265.914 111.25C253.61 106.048 240.91 102.179 227.909 99.6721C225.96 99.2925 223.998 98.9482 222.033 98.6326C220.08 98.317 218.125 98.0367 216.158 97.7829C208.003 96.7323 199.744 96.2048 191.408 96.2048C183.07 96.2048 174.811 96.7323 166.656 97.7829C164.691 98.0367 162.734 98.317 160.78 98.6326C158.816 98.9482 156.856 99.2925 154.905 99.6721C141.903 102.179 129.204 106.048 116.899 111.25C110.945 113.771 105.149 116.574 99.5232 119.653V147.038C107.895 141.554 116.752 136.83 126.057 132.895C135.426 128.934 145.062 125.855 154.905 123.674C156.856 123.241 158.812 122.844 160.78 122.482C162.732 122.122 164.689 121.798 166.656 121.509C174.793 120.308 183.054 119.708 191.408 119.708C199.76 119.708 208.021 120.308 216.158 121.509C218.125 121.798 220.085 122.122 222.033 122.482C224.002 122.844 225.96 123.241 227.909 123.674C237.752 125.855 247.388 128.934 256.757 132.895C266.062 136.83 274.919 141.554 283.291 147.038Z" fill="#C5B783"/>
<path d="M283.291 455.552V428.164C274.919 433.646 266.062 438.374 256.757 442.307C247.388 446.271 237.752 449.35 227.909 451.533C225.96 451.963 224.002 452.36 222.033 452.722C220.085 453.082 218.125 453.406 216.158 453.695C208.021 454.896 199.76 455.499 191.408 455.499C183.054 455.499 174.793 454.896 166.656 453.695C164.689 453.406 162.732 453.082 160.78 452.722C158.812 452.36 156.856 451.963 154.905 451.533C145.062 449.35 135.426 446.271 126.057 442.307C116.752 438.374 107.895 433.646 99.5232 428.164V455.552C105.149 458.63 110.945 461.433 116.899 463.952C129.204 469.156 141.903 473.025 154.905 475.534C156.856 475.912 158.816 476.258 160.78 476.572C162.734 476.887 164.691 477.17 166.656 477.424C174.811 478.474 183.07 479 191.408 479C199.744 479 208.003 478.474 216.158 477.424C218.125 477.17 220.08 476.887 222.033 476.572C223.998 476.258 225.96 475.912 227.909 475.534C240.91 473.025 253.61 469.156 265.914 463.952C271.869 461.433 277.665 458.63 283.291 455.552Z" fill="#C5B783"/>
<path d="M161.12 321.505H156.759V342.733H161.12V321.505Z" fill="#C5B783"/>
<path d="M163.542 325.522H167.1V342.735H171.461V325.522H175.017V321.505H163.542V325.522Z" fill="#C5B783"/>
<path fill-rule="evenodd" clip-rule="evenodd" d="M177.973 342.733H173.556L179.35 321.505H183.367L189.39 342.733H184.974L183.883 338.687H179.006L177.973 342.733ZM181.416 327.729L180.067 334.67H182.764L181.416 327.729Z" fill="#C5B783"/>
<path d="M195.802 321.505H191.441V342.733H201.366V338.718H195.802V321.505Z" fill="#C5B783"/>
<path d="M208.37 321.505H204.009V342.733H208.37V321.505Z" fill="#C5B783"/>
<path fill-rule="evenodd" clip-rule="evenodd" d="M210.235 342.733H214.652L215.684 338.687H220.562L221.652 342.733H226.069L220.046 321.505H216.029L210.235 342.733ZM216.746 334.67L218.095 327.729L219.443 334.67H216.746Z" fill="#C5B783"/>
</svg>
