<?xml version="1.0" encoding="UTF-8" standalone="no"?>
<!DOCTYPE svg PUBLIC "-//W3C//DTD SVG 1.1//EN" "http://www.w3.org/Graphics/SVG/1.1/DTD/svg11.dtd">
<svg width="100%" height="100%" viewBox="0 0 607 251" version="1.1" xmlns="http://www.w3.org/2000/svg" xmlns:xlink="http://www.w3.org/1999/xlink" xml:space="preserve" xmlns:serif="http://www.serif.com/" style="fill-rule:evenodd;clip-rule:evenodd;stroke-linejoin:round;stroke-miterlimit:2;">
    <g id="アートボード1" transform="matrix(0.901956,0,0,0.824097,-399.858,-300.864)">
        <rect x="443.324" y="365.083" width="672.117" height="303.861" style="fill:none;"/>
        <g transform="matrix(9.75348,0,0,10.675,-10679.6,-789.046)">
            <path d="M1150.27,108.739C1149.66,108.739 1149.13,109.112 1148.94,109.667L1147.14,114.667L1147.38,114.987L1151.3,114.987L1151.56,115.24L1151.56,126.093C1151.56,130.307 1146.54,129.635 1143.44,128.155C1143.17,128.019 1142.83,128.157 1142.73,128.445L1140.86,133.669C1140.74,133.989 1140.86,134.347 1141.17,134.504C1143.22,135.565 1145.88,136.24 1148.58,136.24C1151.38,136.24 1158.64,134.957 1158.64,126.413L1158.64,109.971C1158.64,109.293 1158.07,108.739 1157.37,108.739L1150.27,108.739ZM1181.45,114.992C1182.14,114.992 1182.76,114.56 1182.99,113.925L1184.74,109.064L1184.49,108.744L1166.27,108.744C1165.57,108.744 1165,109.291 1165,109.968L1165,135.107C1165,135.464 1165.3,135.749 1165.66,135.749L1171.43,135.749C1171.8,135.749 1172.08,135.464 1172.08,135.107L1172.08,126.552L1172.33,126.307L1177.4,126.307C1178.09,126.307 1178.72,125.88 1178.94,125.24L1180.58,120.653L1180.35,120.325L1172.33,120.325L1172.08,120.083L1172.08,115.237L1172.33,114.992L1181.45,114.992ZM1200.26,135.184C1200.37,135.517 1200.68,135.749 1201.04,135.749L1207.21,135.749C1207.56,135.749 1207.8,135.419 1207.68,135.096L1199.56,112.413L1199.56,112.043L1200.62,109.067L1200.38,108.747L1192.62,108.747C1191.93,108.747 1191.32,109.171 1191.08,109.805L1182.02,135.096C1181.91,135.419 1182.15,135.749 1182.49,135.749L1188.5,135.749C1188.86,135.749 1189.17,135.517 1189.29,135.184L1190.29,132.075L1190.62,131.843L1198.93,131.843L1199.26,132.075L1200.26,135.184ZM1194.65,118.525L1194.89,118.525L1197.32,126.077L1197.15,126.309L1192.39,126.309L1192.22,126.077L1194.65,118.525Z" style="fill:rgb(27,43,101);fill-rule:nonzero;"/>
        </g>
    </g>
</svg>
