<svg width="120" height="120" viewBox="0 0 120 120" fill="none" xmlns="http://www.w3.org/2000/svg">
<g clip-path="url(#clip0_1802_42006)">
<path d="M73.5329 38.8265C72.0257 40.0153 68.3179 40.1427 66.5913 39.6969C66.5913 39.6969 71.4703 38.731 72.6378 37.5493C72.2592 37.1177 70.7025 36.5516 70.6671 36.5303C70.6317 36.5091 78.5287 34.9771 79.1832 34.5455C79.1584 34.8356 78.932 36.3145 73.6285 40.1781C73.5011 39.4457 73.6674 39.053 73.5329 38.8265ZM63.0851 67.2795C69.6269 70.485 70.653 72.2929 70.6317 72.4592C68.9759 85.8189 84.2957 85.6385 86.468 78.9162C86.3407 79.2134 84.9113 80.9753 81.2176 81.4317C72.3725 82.5179 70.1647 72.9015 80.3118 70.4991C82.7142 69.9295 85.9727 70.5558 87.8691 71.7976C87.8691 71.7976 90.0132 68.2773 92.7728 66.4339C91.9909 66.3207 90.65 66.2959 89.3763 65.7971C90.8729 65.3159 96.0455 62.6836 98.1754 58.261C98.2462 58.6148 98.9043 64.3748 96.0774 71.3235C95.9606 69.3917 95.1469 68.3763 94.4145 67.368C92.8931 68.7832 90.2679 71.3801 89.7903 73.7577C92.0405 77.2957 91.3718 81.4706 89.9636 83.919C84.7096 93.0436 70.5398 92.4987 66.9663 87.3898C66.5241 91.7062 68.4028 94.756 74.4245 97.6997C71.7144 98.9097 69.4889 99.03 67.6102 99.1927C67.1043 99.9463 64.61 103.378 64.5321 103.488C66.3436 103.162 70.4442 102.384 72.1283 101.63C72.2817 102.178 72.3474 102.746 72.3229 103.315C72.3229 103.315 74.7996 105.483 72.2946 110.065C72.3229 110.016 72.1425 109.69 72.1213 109.641C71.9833 109.312 71.8418 108.983 71.6967 108.661C71.5516 108.339 71.3429 107.928 71.1731 107.574C71.0598 107.362 70.8193 106.792 70.5645 106.729C70.0603 106.601 69.5448 106.523 69.0255 106.495C68.3088 106.453 67.5903 106.537 66.9026 106.743C63.3398 107.864 61.5142 112.372 63.3646 115.485C63.0794 115.468 62.7954 115.535 62.5473 115.676C61.9348 116.002 61.4252 116.492 61.0755 117.092C60.532 117.994 60.1378 118.979 59.9079 120.007C59.0659 119.342 58.2946 117.633 58.4361 116.285C58.4361 116.154 57.1624 114.849 57.0881 114.76C60.2723 110.203 59.9185 108.827 60.0105 108.82C57.5339 109.046 55.2377 113.246 55.2377 113.246L53.8897 112.308C53.8897 112.308 52.4073 113.327 53.0795 114.955C50.479 113.43 51.3494 111.678 51.6253 110.575C51.597 110.546 50.9567 109.867 50.9708 109.839C51.222 109.633 55.4535 107.981 56.9855 106.874C55.8285 106.357 52.8884 106.693 51.9225 108.583L50.4224 107.581C49.6466 108.174 49.1072 109.023 48.901 109.977C48.1014 109.209 47.8962 105.618 50.1287 105.296C50.2243 105.296 50.3835 104.355 50.3729 104.302L59.2958 103.725C59.2958 103.725 61.5708 100.187 61.6699 99.3838C60.0202 99.4102 58.3843 99.6894 56.8192 100.212C56.8192 100.212 53.5607 96.0899 53.5536 95.5945C54.615 86.9688 56.4336 82.5427 56.4336 82.5427C54.3426 83.1406 53.0724 85.7623 51.8341 91.1437C50.8854 90.3549 50.1841 89.3096 49.8139 88.1328L45.8406 89.4242C45.8406 89.4525 48.5402 92.6473 48.7772 92.8667L49.8068 92.9764C50.0297 95.3292 49.7891 97.5298 47.9529 98.9026C48.7984 96.3552 47.599 94.9329 47.599 94.9329L45.7522 95.6794C45.7522 95.6794 45.2533 91.5505 41.8992 91.5505C40.2293 91.5505 39.5924 96.0863 39.5924 96.0863C39.5924 96.0863 37.5015 95.782 37.4696 95.8174C36.4825 97.4874 38.3435 98.2941 38.3364 98.2941C37.4543 98.3077 36.5983 97.9938 35.9341 97.4131C34.8727 96.3517 34.7595 94.8091 35.4565 93.4611C35.4565 93.5106 39.1679 89.9903 39.4262 89.4702C36.5957 87.6233 35.2371 90.7085 35.0744 90.8677C35.0744 90.8677 33.8962 90.6413 33.5282 90.5811C33.5282 90.5811 32.8985 91.1189 33.3089 92.7039C33.1461 92.6367 31.2143 90.9561 31.6884 88.6104C31.6884 88.6104 32.1802 87.3155 34.2217 87.0466L38.4249 86.5725C35.8244 83.9048 33.4716 86.0878 33.4716 86.0453C33.4716 86.0029 32.764 85.0936 32.4597 85.1184C31.9649 85.1089 31.4811 85.2649 31.085 85.5616C30.6889 85.8584 30.4032 86.2789 30.2732 86.7565C29.9937 86.2435 29.2578 84.3117 31.3594 83.0061C32.1855 82.7319 33.0265 82.5051 33.8785 82.3268C33.9068 82.3268 37.1158 82.8399 38.432 83.0981C38.4603 83.0981 42.0585 86.1196 42.4724 86.4027C42.4724 86.4027 46.1697 84.6832 46.7676 84.4567C46.9197 84.4001 40.3991 81.9801 40.3991 81.9801C40.3991 81.4565 41.4605 78.3288 43.3711 76.8464C44.0787 76.298 48.6782 75.877 51.5086 74.4158C50.0934 73.9311 45.7239 72.53 43.3711 69.1087C43.2932 68.999 43.0845 73.2128 43.0845 73.2128C43.0845 73.2128 37.1653 66.7524 34.4693 66.4339C34.8232 66.6533 36.4967 70.163 37.1866 71.1678C36.9682 71.3284 36.7125 71.4307 36.4436 71.465C36.6665 73.3154 34.6073 74.7165 32.159 73.9735C33.093 73.4817 33.5035 72.5123 33.6556 71.5818L32.2651 70.8494C32.2651 70.8494 33.132 69.3457 32.9728 68.907C31.2886 64.2757 27.1987 68.2348 27.0642 69.7172C27.0642 69.7172 25.6773 68.8398 25.6702 68.8504C24.9626 69.696 25.2952 71.1289 25.6065 72.0347C23.2714 70.8636 22.6876 66.6533 24.1347 65.3124C24.2267 65.2239 29.2437 63.6849 29.2543 63.6778C27.8744 62.1706 25.5605 62.8853 25.5605 62.8853C25.5605 62.8853 24.6866 61.6753 24.6194 61.654C24.0852 61.8168 23.2042 62.9773 23.0662 63.8122C21.5272 62.5102 22.4895 59.0819 24.4956 58.8059C24.63 58.7847 28.2459 59.5454 28.8155 59.602C28.575 58.07 27.1137 55.8799 25.4969 56.7715C25.4969 56.7715 26.4203 55.1829 26.4238 55.19L23.4129 55.3386C25.2846 52.8938 27.8143 52.862 30.3546 54.1994C30.3157 54.6699 32.2934 60.1008 32.7109 60.7695C33.0647 61.3533 38.998 61.4771 39.5429 61.5585C39.4561 61.2847 39.4084 61 39.4014 60.7129C38.9697 60.2742 36.4365 57.0333 36.3374 57.1147C36.2384 57.1961 34.2606 59.4498 34.2146 59.5206C33.1037 55.2926 36.6417 53.7005 32.9586 47.4063C32.9586 47.4063 29.325 50.4667 29.3073 50.4703C26.9899 51.3229 25.0794 50.9302 24.6548 48.4217C25.3624 49.6636 27.4852 48.9595 27.4852 48.9595L27.4428 47.4063C32.6366 46.7942 30.2449 42.0992 28.6174 41.9294C27.3543 41.8091 25.2669 42.7467 25.2633 42.7962C25.2598 42.8458 23.9967 42.3434 23.4519 42.3186C22.2489 43.3411 22.0968 43.9284 22.1994 45.0252C20.4091 42.5839 20.8797 40.5849 23.1158 38.8407C23.1759 38.8407 28.5997 39.1308 29.0208 38.6496C29.0809 38.409 29.6824 35.2885 25.7728 34.6552C25.7516 33.9476 25.7339 33.7424 25.7091 33.0383C24.6477 33.2612 23.4448 34.2058 23.1264 35.2708C22.3834 33.6079 23.3457 31.7115 25.0475 31.0711C26.7493 30.4308 29.1587 31.0711 30.0256 32.6526C30.62 33.753 31.922 35.9147 32.5517 37.7404C33.0824 37.3123 35.184 35.4972 33.7759 33.2753C34.8833 32.5288 32.8171 31.3223 31.7521 31.1136C32.488 30.7598 34.7382 30.7598 35.6971 30.9968C36.7266 31.2551 37.5758 32.6031 38.0322 33.6468C37.13 37.3158 35.6475 41.8834 36.1888 43.3871C36.2242 43.4826 41.3119 51.606 41.7223 51.7546C41.7577 51.6767 43.1163 45.9946 47.2842 45.0323L40.2541 45.8142C41.2044 43.4865 42.9088 41.5453 45.0941 40.3019L42.8581 40.3691C41.2942 39.3431 38.5558 35.7484 38.1525 31.386C41.0926 33.2258 43.5727 33.4805 47.0365 33.5089C45.7416 32.9852 44.344 31.0747 44.344 31.0747C44.344 31.0747 50.7125 31.8389 50.8187 31.8389C51.1725 31.8389 57.6082 31.0039 58.0328 30.9013C58.238 30.8518 60.5094 32.3165 60.6474 32.2599C61.0012 32.1467 66.5807 30.8129 66.9592 30.7067C67.3944 31.7363 69.5385 31.156 70.653 31.1242C72.422 31.0711 73.5365 32.6385 74.1167 34.3368C72.0328 33.569 69.8711 35.1328 68.102 37.7828C64.6631 35.8369 60.5448 36.3393 59.9185 40.7583C63.6087 39.6474 66.6691 42.7255 68.5903 40.6062C69.7755 44.2787 65.0876 45.747 62.756 46.7695C62.756 46.7695 62.1652 44.7422 62.1581 44.7457C61.9918 44.7775 56.239 47.0277 57.5197 51.008C57.5374 51.0399 76.5686 46.2317 84.2355 31.0959C86.047 33.286 84.9431 37.7651 84.6955 38.7735C84.6955 38.7947 95.6847 32.9605 99.1626 30.8872C99.0741 31.4851 94.3119 48.2661 98.3417 54.8362C90.8446 55.7455 86.6237 62.5775 86.2522 68.5249C80.4711 66.6922 74.4068 69.5863 73.0836 72.2186C71.265 69.6712 66.3366 67.5732 63.0851 67.2795ZM64.7869 33.6681L67.1998 33.799C67.1998 33.799 68.5089 32.6491 68.4983 32.6491C68.1763 31.9415 65.6679 32.8083 65.6679 32.8083L64.7869 33.6681ZM58.6731 35.0833L59.356 33.3143L58.0858 33.0312C56.5609 33.3711 55.0108 33.5865 53.451 33.6751C53.4191 33.6751 56.6352 34.2377 56.6352 34.2377C56.5078 35.1293 58.1389 35.3026 58.6731 35.0656V35.0833ZM85.8206 75.976C85.4102 72.9404 77.6371 74.5184 77.6831 76.8676C77.7609 79.7724 85.9303 77.8901 85.8206 75.976Z" fill="white"/>
<path d="M43.2649 -0.00354004V0.113216L41.9842 2.8269L39.5995 23.2874H34.4163L32.1484 6.3048L29.8487 23.2874H24.669L22.2808 2.8269L21 0.120291V-0.00354004H26.7918V0.113216L25.9497 2.8269L27.2871 18.2811L29.9937 -0.00354004H34.2712L36.9955 18.2776L38.3187 2.8269L37.4732 0.120291V-0.00354004H43.2649Z" fill="white"/>
<path d="M57.5834 23.1671V23.2839H51.8553V23.1671L52.4922 20.4605L52.1171 17.8141H48.1545L47.7759 20.4605L48.4163 23.1671V23.2839H42.6812V23.1671L43.9619 20.4605L47.0754 2.8269L46.7004 0.120291V-0.00354004H53.6845V0.113216L53.3059 2.8269L56.3026 20.4641L57.5834 23.1671ZM51.6183 14.3786L50.1323 4.16428L48.6498 14.3786H51.6183Z" fill="white"/>
<path d="M58.7474 23.1671L59.7664 20.4605V2.8269L58.7474 0.120291V-0.00354004H64.5109V0.113216L63.492 2.8269V19.8095H67.2458L69.9524 18.6455H70.0692V23.3016H58.7474V23.1671Z" fill="white"/>
<path d="M83.3687 18.6278V23.2839H72.047V23.1671L73.0659 20.4605V2.8269L72.047 0.120291V-0.00354004H83.2237V4.65607H83.1069L80.4003 3.49205H76.7915V9.75086H79.3813L81.7978 8.79205H81.9287V14.0567H81.812L79.3813 13.0872H76.7915V19.8095H80.5453L83.252 18.6455L83.3687 18.6278Z" fill="white"/>
<path d="M86.5706 21.4512V17.7256L86.1319 15.019V14.9023H90.2962V19.2682L90.8198 19.7918H93.4981L94.0218 19.2682V13.6073L93.4981 13.0872H88.4034L86.5706 11.2545V1.83271L88.4034 -0.00354004H95.9111L97.7438 1.82917V4.91435L98.1825 7.62449V7.73771H94.0218V4.01568L93.4981 3.49205H90.8198L90.2962 4.01568V9.05386L90.8198 9.5775H95.9111L97.7438 11.4102V21.4512L95.9111 23.2839H88.4034L86.5706 21.4512Z" fill="white"/>
</g>
<defs>
<clipPath id="clip0_1802_42006">
<rect width="120" height="120" fill="white"/>
</clipPath>
</defs>
</svg>
