<svg width="96" height="96" viewBox="0 0 96 96" fill="none" xmlns="http://www.w3.org/2000/svg">
  <rect x="10" y="10" width="76" height="76" rx="22" fill="#0A1117" stroke="#DDFBF5" stroke-opacity="0.28" stroke-width="2"/>
  <circle cx="48" cy="48" r="20" stroke="#EAF8F5" stroke-opacity="0.92" stroke-width="2.2"/>
  <path d="M28 48H68" stroke="#EAF8F5" stroke-opacity="0.78" stroke-width="2"/>
  <path d="M48 28C42.5 33.5 39.4 40.5 39.4 48C39.4 55.5 42.5 62.5 48 68" stroke="#EAF8F5" stroke-opacity="0.78" stroke-width="2"/>
  <path d="M48 28C53.5 33.5 56.6 40.5 56.6 48C56.6 55.5 53.5 62.5 48 68" stroke="#EAF8F5" stroke-opacity="0.78" stroke-width="2"/>
  <path d="M33 38.5C37.5 41.2 42.6 42.7 48 42.7C53.4 42.7 58.5 41.2 63 38.5" stroke="#74F5E1" stroke-opacity="0.76" stroke-width="2"/>
  <path d="M33 57.5C37.5 54.8 42.6 53.3 48 53.3C53.4 53.3 58.5 54.8 63 57.5" stroke="#74F5E1" stroke-opacity="0.76" stroke-width="2"/>
</svg>
